<?xml version="1.0" encoding="utf-8"?>
<!-- Generator: Adobe Illustrator 19.0.0, SVG Export Plug-In . SVG Version: 6.00 Build 0)  -->
<svg version="1.1" id="圖層_1" xmlns="http://www.w3.org/2000/svg" xmlns:xlink="http://www.w3.org/1999/xlink" x="0px" y="0px"
	  width="242px" height="107px" viewBox="0 0 146.6 64.9" style="enable-background:new 0 0 146.6 64.9;" xml:space="preserve">
<style type="text/css">
	.st0{fill:url(#XMLID_141_);}
	.st1{fill:url(#XMLID_142_);}
	.st2{fill:url(#XMLID_143_);}
	.st3{fill:url(#XMLID_144_);}
	.st4{fill:url(#XMLID_145_);}
	.st5{fill:url(#XMLID_146_);}
	.st6{fill:url(#XMLID_147_);}
	.st7{fill:url(#XMLID_148_);}
	.st8{fill:url(#XMLID_149_);}
	.st9{fill:url(#XMLID_150_);}
	.st10{fill:url(#XMLID_151_);}
	.st11{fill:#C9BC9C;}
	.st12{fill:#FFFFFF;}
</style>
<g id="XMLID_1_">
	<g id="XMLID_9_">
		<linearGradient id="XMLID_141_" gradientUnits="userSpaceOnUse" x1="71.9596" y1="5.6869" x2="7.7096" y2="41.1869">
			<stop  offset="5.454550e-002" style="stop-color:#D8AF62"/>
			<stop  offset="0.4295" style="stop-color:#E7D581"/>
			<stop  offset="0.4848" style="stop-color:#E9DB86"/>
			<stop  offset="0.532" style="stop-color:#E5D580"/>
			<stop  offset="0.5952" style="stop-color:#D8C470"/>
			<stop  offset="0.6675" style="stop-color:#C4A958"/>
			<stop  offset="0.7466" style="stop-color:#A9853D"/>
			<stop  offset="0.8303" style="stop-color:#895C26"/>
			<stop  offset="0.8364" style="stop-color:#875925"/>
			<stop  offset="0.8544" style="stop-color:#93642A"/>
			<stop  offset="0.8877" style="stop-color:#B2843F"/>
			<stop  offset="0.9212" style="stop-color:#DAB063"/>
			<stop  offset="0.9818" style="stop-color:#7E4B23"/>
			<stop  offset="1" style="stop-color:#27180C"/>
		</linearGradient>
		<path id="XMLID_712_" class="st0" d="M11.4,25.9c4.4,0,8.7,0,13.1,0c0,5.9,0,11.6,0,17.5c-1.8,0-3.5,0-5.3,0c0,1.1,0,2,0,2.9
			c2.8,0,5.5,0,8.2,0c0-7.8,0-15.5,0-23.2c-5.4,0-10.2,0-15.5,0C11.9,24,11.4,24.8,11.4,25.9z"/>
		<linearGradient id="XMLID_142_" gradientUnits="userSpaceOnUse" x1="66.7399" y1="-3.7599" x2="2.4899" y2="31.7401">
			<stop  offset="5.454550e-002" style="stop-color:#D8AF62"/>
			<stop  offset="0.4295" style="stop-color:#E7D581"/>
			<stop  offset="0.4848" style="stop-color:#E9DB86"/>
			<stop  offset="0.532" style="stop-color:#E5D580"/>
			<stop  offset="0.5952" style="stop-color:#D8C470"/>
			<stop  offset="0.6675" style="stop-color:#C4A958"/>
			<stop  offset="0.7466" style="stop-color:#A9853D"/>
			<stop  offset="0.8303" style="stop-color:#895C26"/>
			<stop  offset="0.8364" style="stop-color:#875925"/>
			<stop  offset="0.8544" style="stop-color:#93642A"/>
			<stop  offset="0.8877" style="stop-color:#B2843F"/>
			<stop  offset="0.9212" style="stop-color:#DAB063"/>
			<stop  offset="0.9818" style="stop-color:#7E4B23"/>
			<stop  offset="1" style="stop-color:#27180C"/>
		</linearGradient>
		<path id="XMLID_677_" class="st1" d="M12.9,20.7c7.8,0,15.6,0,23.4,0c2.7,0,2.7,0,2.3-2.6c0,0,0-0.1-0.2-0.2c-9,0-17.5,0-26.5,0
			c0,1-0.5,1.9-0.5,2.8C12,20.7,12.4,20.7,12.9,20.7z"/>
		<linearGradient id="XMLID_143_" gradientUnits="userSpaceOnUse" x1="71.2653" y1="4.4303" x2="7.0153" y2="39.9303">
			<stop  offset="5.454550e-002" style="stop-color:#D8AF62"/>
			<stop  offset="0.4295" style="stop-color:#E7D581"/>
			<stop  offset="0.4848" style="stop-color:#E9DB86"/>
			<stop  offset="0.532" style="stop-color:#E5D580"/>
			<stop  offset="0.5952" style="stop-color:#D8C470"/>
			<stop  offset="0.6675" style="stop-color:#C4A958"/>
			<stop  offset="0.7466" style="stop-color:#A9853D"/>
			<stop  offset="0.8303" style="stop-color:#895C26"/>
			<stop  offset="0.8364" style="stop-color:#875925"/>
			<stop  offset="0.8544" style="stop-color:#93642A"/>
			<stop  offset="0.8877" style="stop-color:#B2843F"/>
			<stop  offset="0.9212" style="stop-color:#DAB063"/>
			<stop  offset="0.9818" style="stop-color:#7E4B23"/>
			<stop  offset="1" style="stop-color:#27180C"/>
		</linearGradient>
		<path id="XMLID_480_" class="st2" d="M21.7,29.6c-3.5,0-6.9,0-10.4,0c0,0.5,0.1,0.9,0,1.3c-0.2,1.2,0.3,1.6,1.5,1.5
			c2.1-0.1,4.2,0,6.6,0c-0.5,0.5-0.7,0.9-1.1,1.2c-3,3.1-5.9,6.3-8.9,9.4c-1.3,1.3-0.8,2.7-0.7,4.1c3.9-4,7.6-8.1,11.6-11.9
			C22,33.4,21.9,31.6,21.7,29.6z"/>
		<linearGradient id="XMLID_144_" gradientUnits="userSpaceOnUse" x1="73.6915" y1="8.8214" x2="9.4414" y2="44.3214">
			<stop  offset="5.454550e-002" style="stop-color:#D8AF62"/>
			<stop  offset="0.4295" style="stop-color:#E7D581"/>
			<stop  offset="0.4848" style="stop-color:#E9DB86"/>
			<stop  offset="0.532" style="stop-color:#E5D580"/>
			<stop  offset="0.5952" style="stop-color:#D8C470"/>
			<stop  offset="0.6675" style="stop-color:#C4A958"/>
			<stop  offset="0.7466" style="stop-color:#A9853D"/>
			<stop  offset="0.8303" style="stop-color:#895C26"/>
			<stop  offset="0.8364" style="stop-color:#875925"/>
			<stop  offset="0.8544" style="stop-color:#93642A"/>
			<stop  offset="0.8877" style="stop-color:#B2843F"/>
			<stop  offset="0.9212" style="stop-color:#DAB063"/>
			<stop  offset="0.9818" style="stop-color:#7E4B23"/>
			<stop  offset="1" style="stop-color:#27180C"/>
		</linearGradient>
		<rect id="XMLID_295_" x="43.7" y="22.2" class="st3" width="8" height="2"/>
		<linearGradient id="XMLID_145_" gradientUnits="userSpaceOnUse" x1="76.4963" y1="13.8977" x2="12.2463" y2="49.3977">
			<stop  offset="5.454550e-002" style="stop-color:#D8AF62"/>
			<stop  offset="0.4295" style="stop-color:#E7D581"/>
			<stop  offset="0.4848" style="stop-color:#E9DB86"/>
			<stop  offset="0.532" style="stop-color:#E5D580"/>
			<stop  offset="0.5952" style="stop-color:#D8C470"/>
			<stop  offset="0.6675" style="stop-color:#C4A958"/>
			<stop  offset="0.7466" style="stop-color:#A9853D"/>
			<stop  offset="0.8303" style="stop-color:#895C26"/>
			<stop  offset="0.8364" style="stop-color:#875925"/>
			<stop  offset="0.8544" style="stop-color:#93642A"/>
			<stop  offset="0.8877" style="stop-color:#B2843F"/>
			<stop  offset="0.9212" style="stop-color:#DAB063"/>
			<stop  offset="0.9818" style="stop-color:#7E4B23"/>
			<stop  offset="1" style="stop-color:#27180C"/>
		</linearGradient>
		<path id="XMLID_289_" class="st4" d="M51.6,33.4v-7.4H44v7.4H51.6z M45.4,27.9h4.8v3.7h-4.8V27.9z"/>
		<linearGradient id="XMLID_146_" gradientUnits="userSpaceOnUse" x1="75.6635" y1="12.3906" x2="11.4135" y2="47.8906">
			<stop  offset="5.454550e-002" style="stop-color:#D8AF62"/>
			<stop  offset="0.4295" style="stop-color:#E7D581"/>
			<stop  offset="0.4848" style="stop-color:#E9DB86"/>
			<stop  offset="0.532" style="stop-color:#E5D580"/>
			<stop  offset="0.5952" style="stop-color:#D8C470"/>
			<stop  offset="0.6675" style="stop-color:#C4A958"/>
			<stop  offset="0.7466" style="stop-color:#A9853D"/>
			<stop  offset="0.8303" style="stop-color:#895C26"/>
			<stop  offset="0.8364" style="stop-color:#875925"/>
			<stop  offset="0.8544" style="stop-color:#93642A"/>
			<stop  offset="0.8877" style="stop-color:#B2843F"/>
			<stop  offset="0.9212" style="stop-color:#DAB063"/>
			<stop  offset="0.9818" style="stop-color:#7E4B23"/>
			<stop  offset="1" style="stop-color:#27180C"/>
		</linearGradient>
		<polygon id="XMLID_15_" class="st5" points="42.9,20.2 52.6,20.2 52.6,37.7 54.9,37.7 54.9,17.8 40.7,17.8 40.7,37.7 42.9,37.7 		
			"/>
		<linearGradient id="XMLID_147_" gradientUnits="userSpaceOnUse" x1="77.8921" y1="16.424" x2="13.6421" y2="51.924">
			<stop  offset="5.454550e-002" style="stop-color:#D8AF62"/>
			<stop  offset="0.4295" style="stop-color:#E7D581"/>
			<stop  offset="0.4848" style="stop-color:#E9DB86"/>
			<stop  offset="0.532" style="stop-color:#E5D580"/>
			<stop  offset="0.5952" style="stop-color:#D8C470"/>
			<stop  offset="0.6675" style="stop-color:#C4A958"/>
			<stop  offset="0.7466" style="stop-color:#A9853D"/>
			<stop  offset="0.8303" style="stop-color:#895C26"/>
			<stop  offset="0.8364" style="stop-color:#875925"/>
			<stop  offset="0.8544" style="stop-color:#93642A"/>
			<stop  offset="0.8877" style="stop-color:#B2843F"/>
			<stop  offset="0.9212" style="stop-color:#DAB063"/>
			<stop  offset="0.9818" style="stop-color:#7E4B23"/>
			<stop  offset="1" style="stop-color:#27180C"/>
		</linearGradient>
		<path id="XMLID_14_" class="st6" d="M62.9,38.9c0,0,0-0.1-0.2-0.2c-8.6,0-21.5,0-30.5,0c0-3,0-6,0-9.1c2.5,0,5,0,7.4,0
			c0-1,0-1.9,0-2.9c-3.5,0-7,0-10.4,0c0,6.5,0,13,0,19.4c3.5,0,7,0,10.4,0c0-1,0-1.9,0-2.9c-2.5,0-5,0-7.4,0c0-0.6,0-1.1,0-1.7
			c1.7,0,4.6,0,4.9,0c7.8,0,15.6,0,23.4,0C63.2,41.6,63.2,41.6,62.9,38.9z"/>
		<linearGradient id="XMLID_148_" gradientUnits="userSpaceOnUse" x1="84.1486" y1="27.7473" x2="19.8986" y2="63.2473">
			<stop  offset="5.454550e-002" style="stop-color:#D8AF62"/>
			<stop  offset="0.4295" style="stop-color:#E7D581"/>
			<stop  offset="0.4848" style="stop-color:#E9DB86"/>
			<stop  offset="0.532" style="stop-color:#E5D580"/>
			<stop  offset="0.5952" style="stop-color:#D8C470"/>
			<stop  offset="0.6675" style="stop-color:#C4A958"/>
			<stop  offset="0.7466" style="stop-color:#A9853D"/>
			<stop  offset="0.8303" style="stop-color:#895C26"/>
			<stop  offset="0.8364" style="stop-color:#875925"/>
			<stop  offset="0.8544" style="stop-color:#93642A"/>
			<stop  offset="0.8877" style="stop-color:#B2843F"/>
			<stop  offset="0.9212" style="stop-color:#DAB063"/>
			<stop  offset="0.9818" style="stop-color:#7E4B23"/>
			<stop  offset="1" style="stop-color:#27180C"/>
		</linearGradient>
		<rect id="XMLID_13_" x="53.9" y="41.6" class="st7" width="2.2" height="4.6"/>
		<linearGradient id="XMLID_149_" gradientUnits="userSpaceOnUse" x1="84.6051" y1="28.5736" x2="20.3551" y2="64.0736">
			<stop  offset="5.454550e-002" style="stop-color:#D8AF62"/>
			<stop  offset="0.4295" style="stop-color:#E7D581"/>
			<stop  offset="0.4848" style="stop-color:#E9DB86"/>
			<stop  offset="0.532" style="stop-color:#E5D580"/>
			<stop  offset="0.5952" style="stop-color:#D8C470"/>
			<stop  offset="0.6675" style="stop-color:#C4A958"/>
			<stop  offset="0.7466" style="stop-color:#A9853D"/>
			<stop  offset="0.8303" style="stop-color:#895C26"/>
			<stop  offset="0.8364" style="stop-color:#875925"/>
			<stop  offset="0.8544" style="stop-color:#93642A"/>
			<stop  offset="0.8877" style="stop-color:#B2843F"/>
			<stop  offset="0.9212" style="stop-color:#DAB063"/>
			<stop  offset="0.9818" style="stop-color:#7E4B23"/>
			<stop  offset="1" style="stop-color:#27180C"/>
		</linearGradient>
		<rect id="XMLID_12_" x="80.8" y="21.2" class="st8" width="3" height="17.2"/>
		<linearGradient id="XMLID_150_" gradientUnits="userSpaceOnUse" x1="86.8716" y1="32.6755" x2="22.6216" y2="68.1755">
			<stop  offset="5.454550e-002" style="stop-color:#D8AF62"/>
			<stop  offset="0.4295" style="stop-color:#E7D581"/>
			<stop  offset="0.4848" style="stop-color:#E9DB86"/>
			<stop  offset="0.532" style="stop-color:#E5D580"/>
			<stop  offset="0.5952" style="stop-color:#D8C470"/>
			<stop  offset="0.6675" style="stop-color:#C4A958"/>
			<stop  offset="0.7466" style="stop-color:#A9853D"/>
			<stop  offset="0.8303" style="stop-color:#895C26"/>
			<stop  offset="0.8364" style="stop-color:#875925"/>
			<stop  offset="0.8544" style="stop-color:#93642A"/>
			<stop  offset="0.8877" style="stop-color:#B2843F"/>
			<stop  offset="0.9212" style="stop-color:#DAB063"/>
			<stop  offset="0.9818" style="stop-color:#7E4B23"/>
			<stop  offset="1" style="stop-color:#27180C"/>
		</linearGradient>
		<path id="XMLID_11_" class="st9" d="M87.7,17.8v24.8c0,0.6-0.3,0.8-0.8,0.8c-0.7,0-2.7,0-4.9-0.1c0.5,0.8,0.9,2.3,1.1,3.1
			c2.9,0,4.9-0.1,6.1-0.6c1.1-0.5,1.6-1.4,1.6-3.3V17.8H87.7z"/>
		<linearGradient id="XMLID_151_" gradientUnits="userSpaceOnUse" x1="81.407" y1="22.7854" x2="17.157" y2="58.2854">
			<stop  offset="5.454550e-002" style="stop-color:#D8AF62"/>
			<stop  offset="0.4295" style="stop-color:#E7D581"/>
			<stop  offset="0.4848" style="stop-color:#E9DB86"/>
			<stop  offset="0.532" style="stop-color:#E5D580"/>
			<stop  offset="0.5952" style="stop-color:#D8C470"/>
			<stop  offset="0.6675" style="stop-color:#C4A958"/>
			<stop  offset="0.7466" style="stop-color:#A9853D"/>
			<stop  offset="0.8303" style="stop-color:#895C26"/>
			<stop  offset="0.8364" style="stop-color:#875925"/>
			<stop  offset="0.8544" style="stop-color:#93642A"/>
			<stop  offset="0.8877" style="stop-color:#B2843F"/>
			<stop  offset="0.9212" style="stop-color:#DAB063"/>
			<stop  offset="0.9818" style="stop-color:#7E4B23"/>
			<stop  offset="1" style="stop-color:#27180C"/>
		</linearGradient>
		<path id="XMLID_10_" class="st10" d="M79.2,29.8c-2.2,0-4.4,0-6.6,0c0-3.8,0-7.3,0-9.4c1.7,0,3.4,0,5.2,0c1.5,0,1.5,0.3,1.3-2.4
			c0,0,0-0.1-0.1-0.2c-5.2,0-9.9,0-15.1,0c0,1-0.5,1.6-0.5,2.6c0.3,0,0.6,0,0.9,0c1.8,0,3.7,0,5.5,0c0,0.2,0,0.3,0,0.6
			c0,2.9,0,5.9,0,8.8h-6.3c-0.4,0-0.8,0-1.2,0c0.1-4.2,0.2-8.7,0.3-12h-6.2v2.5h3.5c0,1.2,0,2.5,0,3.7h-3.3v2.4h3.2
			c0,1.2-0.1,2.3-0.1,3.5h-3.4v2.4h3.2c0,1.2-0.1,4.4-0.2,5.5H62c0.1-1.5,0.2-3.4,0.2-5.5c2.4,0,4.8,0,7.2,0
			c-1.5,3.7-4.1,7.9-6.6,10.2c0.5,0.8,1.3,2.1,1.6,3c1.9-1.9,3.8-4.9,5.4-8.1c0,3.5,0,8.9,0,9.1c1,0,1.9,0,2.8,0c0-2.1,0-5.9,0-10.1
			c1.5,1.6,3.3,3.6,4.2,4.7l1.7-2.6c-0.9-0.9-4.2-4.1-5.9-5.5c0-0.2,0-0.4,0-0.6c1.7,0,3.4,0,5.1,0c1.8,0,1.8,0.3,1.6-2.4
			C79.3,29.9,79.3,29.9,79.2,29.8z"/>
	</g>
	<g id="XMLID_713_">
		<g id="XMLID_292_">
			<path id="XMLID_308_" class="st11" d="M101.3,30.4c-0.3-0.3-0.6-0.5-0.9-0.8c-0.3-0.3-0.6-0.5-0.9-0.8c-0.3,0.5-0.6,0.9-0.9,1.3
				c-0.3,0.4-0.7,0.8-1.1,1.2h-0.8c0.5-0.4,0.9-0.9,1.3-1.4c0.4-0.5,0.7-1,1-1.5c-0.3-0.3-0.5-0.5-0.8-0.8c-0.2-0.3-0.4-0.5-0.6-0.8
				c-0.1-0.1-0.1-0.3-0.2-0.4c0-0.1-0.1-0.2-0.1-0.3c0-0.1,0-0.2,0-0.4c0-0.1,0-0.3,0.1-0.4c0.2-0.5,0.3-1.1,0.5-1.7
				c0.1-0.6,0.3-1.2,0.4-1.8H97v-0.6h1.6c0.1-0.3,0.1-0.7,0.2-1s0.1-0.7,0.1-1h0.6c-0.1,0.3-0.1,0.7-0.2,1c-0.1,0.3-0.1,0.7-0.2,1
				h0.8c0.5,0,0.9,0.1,1.1,0.4c0.2,0.2,0.3,0.6,0.3,1.1c0,0.4-0.1,0.8-0.1,1.2c0,0.4-0.1,0.8-0.2,1.2c-0.3,1.1-0.7,2.2-1.2,3.2
				c0.4,0.4,0.8,0.7,1.2,1s0.8,0.7,1.2,1H101.3z M100.8,22.5c0-0.2-0.1-0.4-0.2-0.5c-0.1-0.1-0.3-0.2-0.6-0.2h-1
				c-0.3,1.2-0.6,2.5-0.9,3.8c0,0.1-0.1,0.3,0,0.4s0,0.3,0.1,0.4c0.3,0.5,0.7,1,1.2,1.5c0.2-0.4,0.4-0.9,0.6-1.4
				c0.2-0.5,0.3-0.9,0.4-1.4C100.7,24.2,100.8,23.3,100.8,22.5z M108.5,31.3c-0.6-0.4-1.2-0.8-1.8-1.4c-0.2-0.3-0.5-0.5-0.7-0.8
				c-0.2-0.3-0.5-0.6-0.7-0.9c-0.1,0.3-0.2,0.5-0.4,0.7s-0.3,0.5-0.5,0.7c-0.3,0.3-0.6,0.6-0.9,0.9c-0.3,0.3-0.7,0.5-1,0.8h-1
				c0.5-0.3,0.9-0.6,1.3-0.9s0.8-0.7,1.2-1.1c0.2-0.2,0.4-0.5,0.6-0.8s0.3-0.6,0.4-0.9h-3v-0.5h3.2c0.1-0.4,0.2-0.8,0.2-1.2
				c0-0.4,0-0.8,0-1.2h-1.6c-0.4,0-0.8-0.1-1-0.4c-0.2-0.2-0.3-0.5-0.3-0.9V20h0.6v3.5c0,0.2,0.1,0.4,0.2,0.5s0.3,0.2,0.5,0.2h3.6
				c0.4,0,0.8,0.1,1,0.3c0.2,0.2,0.3,0.4,0.3,0.8v1.8h0.7v0.5h-3.7c0,0.1-0.1,0.2-0.1,0.3c0,0.1-0.1,0.2-0.1,0.3h0.7
				c0.3,0.5,0.7,1,1.3,1.5c0.3,0.3,0.6,0.6,1,0.9c0.4,0.3,0.8,0.6,1.2,0.8H108.5z M108,22.7c-0.2,0.2-0.5,0.3-0.8,0.3h-2
				c-0.3,0-0.6-0.1-0.8-0.3c-0.2-0.2-0.3-0.5-0.3-0.9v-1.4c0-0.3,0.1-0.6,0.3-0.8c0.2-0.2,0.4-0.3,0.8-0.3h2.1c0.2,0,0.3,0,0.5,0.1
				c0.1,0.1,0.2,0.2,0.3,0.3c0.2,0.2,0.2,0.5,0.2,0.8v1.4C108.3,22.2,108.2,22.5,108,22.7z M107.7,20.4c0-0.1,0-0.3-0.1-0.4
				c-0.1-0.1-0.2-0.2-0.4-0.2h-2c-0.2,0-0.3,0.1-0.4,0.2s-0.1,0.2-0.1,0.3v1.7c0,0.3,0.2,0.5,0.5,0.5h2c0.1,0,0.3,0,0.4-0.1
				c0.1-0.1,0.1-0.2,0.1-0.4V20.4z M107.9,25.2c0-0.1-0.1-0.2-0.2-0.3c-0.1-0.1-0.2-0.1-0.4-0.1h-1.5c0,0.4,0,0.8,0,1.2
				c0,0.4-0.1,0.8-0.2,1.2h2.2V25.2z"/>
			<path id="XMLID_299_" class="st11" d="M114.7,25.3c0-0.1-0.1-0.1-0.1-0.2c0-0.1-0.1-0.1-0.1-0.2l-0.3,0.4h-2.8
				c-0.2,0-0.3-0.1-0.4-0.3c0-0.1,0-0.3,0.1-0.4c0.4-0.4,0.7-0.8,1-1.1c0.3-0.4,0.6-0.7,0.9-1.1h-1.6c-0.2,0-0.3-0.1-0.4-0.2
				c0-0.1,0-0.1,0-0.2c0-0.1,0-0.1,0.1-0.2c0.4-0.4,0.8-0.9,1.1-1.3s0.7-0.8,1-1.3h0.6c-0.3,0.4-0.6,0.9-1,1.3
				c-0.4,0.4-0.7,0.9-1.1,1.3c0,0,0,0.1,0,0.1s0.1,0.1,0.1,0.1h1.5c0.2-0.2,0.3-0.4,0.5-0.6c0.2-0.2,0.3-0.4,0.5-0.7h0.6
				c-0.3,0.5-0.6,0.9-0.9,1.3c-0.3,0.4-0.6,0.7-0.8,1.1c-0.3,0.3-0.5,0.6-0.8,0.9c-0.3,0.3-0.5,0.6-0.7,0.8c0,0,0,0.1,0,0.1
				c0,0,0.1,0,0.1,0h2.6c-0.1-0.3-0.3-0.6-0.4-0.9c-0.1-0.3-0.2-0.6-0.4-0.9h0.6c0.1,0.3,0.3,0.7,0.4,1.1c0.2,0.4,0.4,0.8,0.6,1.2
				H114.7z M113.7,29.5c-0.5,0.5-1.1,1-1.7,1.5h-1c0.7-0.5,1.3-1.1,1.9-1.6c0.6-0.6,1.1-1.1,1.5-1.7h0.7
				C114.7,28.4,114.2,29,113.7,29.5z M117.4,26.9v4.4h-0.6v-4.4h-5.7v-0.5h5.7v-0.8h0.6v0.8h5.8v0.5H117.4z M118.7,24.9
				c-0.2,0.2-0.4,0.3-0.7,0.3h-1.8c-0.3,0-0.5-0.1-0.6-0.2c-0.2-0.2-0.3-0.4-0.3-0.6v-3.2c0-0.3,0.1-0.5,0.3-0.6
				c0.1-0.1,0.4-0.2,0.6-0.2h0.4c0.1-0.2,0.2-0.4,0.2-0.5c0.1-0.2,0.1-0.4,0.2-0.5h0.6c0,0.2-0.1,0.4-0.2,0.5
				c-0.1,0.2-0.2,0.4-0.2,0.5h0.8c0.3,0,0.5,0.1,0.6,0.2c0.2,0.1,0.3,0.4,0.3,0.6v3.2C118.9,24.5,118.8,24.7,118.7,24.9z
				 M118.3,21.1c0-0.1,0-0.2-0.1-0.2c-0.1-0.1-0.1-0.1-0.2-0.1h-1.8c-0.1,0-0.2,0-0.2,0.1c-0.1,0.1-0.1,0.1-0.1,0.2v1.3h2.4V21.1z
				 M118.3,22.9h-2.4v1.4c0,0.2,0.1,0.3,0.3,0.3h1.8c0.1,0,0.2,0,0.2-0.1c0.1-0.1,0.1-0.2,0.1-0.3V22.9z M122.7,25.3
				c0-0.1-0.1-0.1-0.1-0.2c0-0.1-0.1-0.1-0.1-0.2l-0.3,0.4h-2.8c-0.2,0-0.3-0.1-0.4-0.3c0-0.1,0-0.3,0.1-0.4c0.3-0.4,0.6-0.8,1-1.1
				s0.6-0.7,0.9-1.1h-1.5c-0.2,0-0.3-0.1-0.4-0.2c0-0.1,0-0.1,0-0.2c0-0.1,0-0.1,0.1-0.2c0.3-0.4,0.7-0.9,1-1.3
				c0.3-0.4,0.6-0.9,0.9-1.3h0.6c-0.3,0.5-0.6,1-0.9,1.4c-0.3,0.4-0.6,0.8-0.9,1.2c0,0,0,0.1,0,0.1c0,0,0.1,0,0.1,0h1.5
				c0.2-0.2,0.3-0.4,0.5-0.6s0.3-0.4,0.5-0.7h0.6c-0.6,0.9-1.2,1.7-1.7,2.3c-0.5,0.6-1,1.2-1.5,1.8c0,0,0,0.1,0,0.1c0,0,0.1,0,0.1,0
				h2.5c-0.1-0.3-0.3-0.6-0.4-0.9c-0.1-0.3-0.2-0.6-0.4-0.9h0.6c0.1,0.3,0.3,0.7,0.4,1.1s0.4,0.8,0.6,1.2H122.7z M122.3,31
				c-0.6-0.5-1.2-1-1.7-1.5c-0.5-0.5-1-1.1-1.5-1.9h0.7c0.4,0.6,0.9,1.2,1.5,1.7c0.6,0.6,1.2,1.1,1.9,1.6H122.3z"/>
			<path id="XMLID_293_" class="st11" d="M127.2,28.8c-0.7,0.3-1.4,0.6-2.2,0.9v-0.6c0.3-0.1,0.6-0.2,0.9-0.3s0.6-0.2,0.9-0.4V23
				h-1.6v-0.6h1.6v-3.3h0.6v3.3h1.6V23h-1.6v5.1c0.5-0.2,1.1-0.5,1.7-0.8V28C128.5,28.2,127.9,28.5,127.2,28.8z M137.1,31.3h-0.7
				c-0.3,0-0.5-0.1-0.8-0.2c-0.2-0.2-0.4-0.4-0.5-0.8c-0.1-0.3-0.2-0.6-0.2-0.9s-0.2-0.7-0.3-1.1c-0.4,0.6-0.8,1.1-1.2,1.7
				c-0.4,0.5-0.8,1-1.3,1.4h-0.8c0.6-0.6,1.2-1.2,1.7-1.9c0.5-0.6,1-1.3,1.4-2c-0.2-0.9-0.3-1.8-0.5-2.7s-0.3-1.9-0.4-2.9h-2.7
				c-0.2,0-0.4,0.1-0.5,0.2c-0.1,0.1-0.2,0.3-0.2,0.5v1.6h1.3c0.4,0,0.7,0.1,1,0.3c0.2,0.2,0.4,0.5,0.4,0.9v2.9
				c0,0.4-0.1,0.7-0.3,0.9c-0.2,0.2-0.5,0.3-0.8,0.3h-1.1l-0.3-0.6h1.3c0.4,0,0.6-0.2,0.6-0.6v-2.9c0-0.4-0.2-0.6-0.7-0.6h-1.3v1.5
				c0,1.2-0.1,2.2-0.4,3c-0.3,0.8-0.7,1.6-1.2,2.1h-0.7c0.6-0.7,1.1-1.5,1.3-2.3c0.3-0.8,0.4-1.7,0.4-2.6v-3.9
				c0-0.4,0.1-0.6,0.3-0.9c0.2-0.2,0.5-0.3,0.9-0.3h2.7c0-0.4-0.1-0.7-0.1-1.1c0-0.4-0.1-0.7-0.1-1h0.6c0,0.3,0,0.6,0.1,1
				c0,0.4,0.1,0.7,0.1,1.1h3.1v0.5h-3c0.1,0.8,0.2,1.6,0.3,2.4c0.1,0.8,0.3,1.6,0.4,2.4c0.6-1.2,1.1-2.4,1.3-3.7h0.6
				c-0.1,0.8-0.4,1.5-0.7,2.3c-0.3,0.8-0.7,1.5-1.1,2.3c0.1,0.6,0.2,1.1,0.3,1.5s0.2,0.9,0.3,1.2c0.1,0.2,0.2,0.3,0.3,0.4
				c0.1,0.1,0.2,0.1,0.4,0.1h1L137.1,31.3z M136,20.9c-0.2-0.2-0.4-0.5-0.6-0.7c-0.2-0.3-0.4-0.5-0.5-0.8h0.6
				c0.1,0.2,0.3,0.5,0.5,0.7c0.2,0.3,0.5,0.5,0.7,0.8H136z"/>
		</g>
	</g>
	<g id="XMLID_89_">
		<path id="XMLID_102_" class="st12" d="M104.7,40.9c0,1.3-0.3,2.4-0.9,3.1c-0.7,0.9-1.6,1.3-2.9,1.3c-1.3,0-2.2-0.4-2.9-1.3
			c-0.6-0.8-0.9-1.8-0.9-3.1c0-1.3,0.3-2.4,0.9-3.2c0.7-0.9,1.6-1.3,2.9-1.3c1.3,0,2.2,0.4,2.9,1.3
			C104.4,38.5,104.7,39.6,104.7,40.9z M104,40.9c0-1.1-0.2-2-0.7-2.7c-0.5-0.8-1.3-1.2-2.4-1.2c-1.1,0-1.9,0.4-2.5,1.2
			c-0.4,0.7-0.7,1.6-0.7,2.7c0,1.1,0.2,2,0.7,2.7c0.5,0.8,1.3,1.2,2.5,1.2c1.1,0,1.9-0.4,2.4-1.2C103.8,42.9,104,42,104,40.9z"/>
		<path id="XMLID_105_" class="st12" d="M112.6,45.1c0,0.2-0.1,0.3-0.2,0.3c-0.1,0-0.2-0.1-0.3-0.2l-5.7-7.5V45c0,0.1,0,0.2-0.1,0.2
			c-0.1,0.1-0.1,0.1-0.2,0.1c-0.2,0-0.3-0.1-0.3-0.4v-8.3c0-0.2,0.1-0.3,0.3-0.3c0.1,0,0.1,0.1,0.2,0.2L112,44v-7.3
			c0-0.2,0.1-0.4,0.3-0.4s0.3,0.1,0.3,0.4V45.1z"/>
		<path id="XMLID_107_" class="st12" d="M120,44.9c0,0.2-0.1,0.3-0.4,0.3h-5.2c-0.3,0-0.4-0.1-0.4-0.4v-8c0-0.2,0.1-0.4,0.3-0.4
			c0.2,0,0.3,0.1,0.3,0.4v7.6c0,0.1,0.1,0.2,0.2,0.2h4.8C119.9,44.5,120,44.6,120,44.9z"/>
		<path id="XMLID_109_" class="st12" d="M121.7,45c0,0.1,0,0.2-0.1,0.2c-0.1,0.1-0.1,0.1-0.2,0.1c-0.2,0-0.3-0.1-0.3-0.4v-8.2
			c0-0.2,0.1-0.4,0.3-0.4s0.3,0.1,0.3,0.4V45z"/>
		<path id="XMLID_111_" class="st12" d="M130.1,45.1c0,0.2-0.1,0.3-0.2,0.3c-0.1,0-0.2-0.1-0.3-0.2l-5.7-7.5V45c0,0.1,0,0.2-0.1,0.2
			c-0.1,0.1-0.1,0.1-0.2,0.1c-0.2,0-0.3-0.1-0.3-0.4v-8.3c0-0.2,0.1-0.3,0.3-0.3c0.1,0,0.1,0.1,0.2,0.2l5.7,7.4v-7.3
			c0-0.2,0.1-0.4,0.3-0.4s0.3,0.1,0.3,0.4V45.1z"/>
		<path id="XMLID_114_" class="st12" d="M137.1,44.9c0,0.2-0.1,0.3-0.4,0.3h-4.8c-0.3,0-0.4-0.1-0.4-0.4V37c0-0.3,0.1-0.4,0.4-0.4
			h4.8c0.2,0,0.4,0.1,0.4,0.3c0,0.2-0.1,0.3-0.4,0.3h-4.4c-0.1,0-0.2,0.1-0.2,0.2v3h4c0.2,0,0.4,0.1,0.4,0.3c0,0.2-0.1,0.3-0.4,0.3
			h-4v3.3c0,0.1,0.1,0.2,0.2,0.2h4.4C136.9,44.5,137.1,44.6,137.1,44.9z"/>
	</g>
</g>
<g id="XMLID_99_">
</g>
<g id="XMLID_112_">
</g>
<g id="XMLID_115_">
</g>
<g id="XMLID_137_">
</g>
<g id="XMLID_138_">
</g>
<g id="XMLID_139_">
</g>
</svg>
